<svg width="40" height="40" viewBox="0 0 40 40" fill="none" xmlns="http://www.w3.org/2000/svg">
<circle cx="20" cy="20" r="20" fill="#EDEDED"/>
<path d="M20 6.66669C16.5066 6.66669 13.6666 9.50669 13.6666 13C13.6666 16.4267 16.3466 19.2 19.84 19.32C19.9466 19.3067 20.0533 19.3067 20.1333 19.32C20.16 19.32 20.1733 19.32 20.2 19.32C20.2133 19.32 20.2133 19.32 20.2266 19.32C23.64 19.2 26.32 16.4267 26.3333 13C26.3333 9.50669 23.4933 6.66669 20 6.66669Z" fill="#9E9E9E"/>
<path d="M26.7733 22.8667C23.0533 20.3867 16.9866 20.3867 13.2399 22.8667C11.5466 24 10.6133 25.5333 10.6133 27.1733C10.6133 28.8133 11.5466 30.3333 13.2266 31.4533C15.0933 32.7067 17.5466 33.3333 19.9999 33.3333C22.4533 33.3333 24.9066 32.7067 26.7733 31.4533C28.4533 30.32 29.3866 28.8 29.3866 27.1467C29.3733 25.5067 28.4533 23.9867 26.7733 22.8667Z" fill="#9E9E9E"/>
</svg>
